<?xml version="1.0" encoding="iso-8859-1"?>
<!-- Generator: Adobe Illustrator 19.0.0, SVG Export Plug-In . SVG Version: 6.00 Build 0)  -->
<svg version="1.1" id="Layer_1" xmlns="http://www.w3.org/2000/svg" xmlns:xlink="http://www.w3.org/1999/xlink" x="0px" y="0px"
	 viewBox="0 0 512 512" style="enable-background:new 0 0 512 512;" xml:space="preserve">
<path style="fill:#188187;" d="M469.333,0H42.667C19.14,0,0,19.14,0,42.667v426.667C0,492.86,19.14,512,42.667,512h426.667
	C492.86,512,512,492.86,512,469.333V42.667C512,19.14,492.86,0,469.333,0z"/>
<path style="fill:#14696E;" d="M503.467,477.867H59.733c-14.139,0-25.6-11.461-25.6-25.6V8.533c0-2.667,0.257-5.273,0.725-7.805
	C15.05,4.41,0,21.808,0,42.667v426.667C0,492.86,19.14,512,42.667,512h426.667c20.859,0,38.257-15.05,41.938-34.859
	C508.739,477.61,506.133,477.867,503.467,477.867z"/>
<path style="fill:#FFFFFF;" d="M254.926,209.189l-42.667-76.8c-1.505-2.709-4.361-4.389-7.459-4.389H128
	c-6.378,0-10.566,7.086-7.459,12.677l40.4,72.72L103.42,320.221c-3.01,5.59,1.182,12.579,7.514,12.579h76.8
	c3.139,0,6.025-1.724,7.514-4.487l59.733-110.933C256.359,214.818,256.338,211.732,254.926,209.189z"/>
<path style="fill:#E5E5E5;" d="M120.462,320.221l57.521-106.823l-40.4-72.72c-3.107-5.591,1.082-12.677,7.459-12.677H128
	c-6.378,0-10.566,7.086-7.459,12.677l40.4,72.72L103.42,320.221c-3.01,5.59,1.182,12.579,7.514,12.579h17.042
	C121.645,332.8,117.453,325.811,120.462,320.221z"/>
<path style="fill:#D4D626;" d="M451.025,55.3c-1.548-2.546-4.311-4.1-7.292-4.1h-76.8c-3.099,0-5.954,1.68-7.459,4.389l-128,230.4
	c-1.399,2.517-1.434,5.57-0.092,8.118l85.333,162.133c1.475,2.803,4.382,4.559,7.551,4.559h76.8c6.147,0,10.35-6.621,7.711-12.187
	L333.79,290.304L451.31,63.662C452.681,61.017,452.573,57.846,451.025,55.3z"/>
<path style="fill:#BCC032;" d="M333.782,456.241l-85.333-162.133c-1.342-2.548-1.308-5.601,0.092-8.118l128-230.4
	c1.505-2.709,4.361-4.389,7.459-4.389h-17.067c-3.099,0-5.954,1.68-7.459,4.389l-128,230.4c-1.399,2.517-1.434,5.57-0.092,8.118
	l85.333,162.133c1.475,2.803,4.382,4.559,7.551,4.559h17.067C338.164,460.8,335.258,459.044,333.782,456.241z"/>
<g>
</g>
<g>
</g>
<g>
</g>
<g>
</g>
<g>
</g>
<g>
</g>
<g>
</g>
<g>
</g>
<g>
</g>
<g>
</g>
<g>
</g>
<g>
</g>
<g>
</g>
<g>
</g>
<g>
</g>
</svg>
